<svg xmlns="http://www.w3.org/2000/svg" xmlns:xlink="http://www.w3.org/1999/xlink" width="500" zoomAndPan="magnify" viewBox="0 0 375 225" height="300" preserveAspectRatio="xMidYMid meet" version="1.0"><defs><g/><clipPath id="974c326125"><path d="M 119.308594 65 L 188 65 L 188 125 L 119.308594 125 Z M 119.308594 65 " clip-rule="nonzero"/></clipPath><clipPath id="bb8abd0d8c"><path d="M 187 33.519531 L 255.808594 33.519531 L 255.808594 94 L 187 94 Z M 187 33.519531 " clip-rule="nonzero"/></clipPath></defs><g clip-path="url(#974c326125)"><path fill="#0652e9" d="M 165.269531 107.492188 L 165.269531 115.777344 L 127.644531 98.351562 L 127.644531 91.628906 L 165.269531 74.203125 L 165.269531 82.488281 L 136.816406 94.910156 L 136.816406 95.066406 Z M 187.617188 65 L 124.691406 65 C 121.722656 65 119.3125 67.402344 119.3125 70.363281 L 119.3125 119.617188 C 119.3125 122.578125 121.722656 124.980469 124.691406 124.980469 L 170.148438 124.980469 L 187.617188 65 " fill-opacity="1" fill-rule="nonzero"/></g><g clip-path="url(#bb8abd0d8c)"><path fill="#62e1e9" d="M 247.488281 67.132812 L 209.863281 84.324219 L 209.863281 76.039062 L 238.945312 63.617188 L 238.945312 63.457031 L 209.863281 51.035156 L 209.863281 42.75 L 247.488281 59.941406 Z M 205.085938 33.546875 L 187.617188 93.527344 L 250.4375 93.527344 C 253.410156 93.527344 255.816406 91.125 255.816406 88.164062 L 255.816406 38.910156 C 255.816406 35.949219 253.410156 33.546875 250.4375 33.546875 L 205.085938 33.546875 " fill-opacity="1" fill-rule="nonzero"/></g><g fill="#0652e9" fill-opacity="1"><g transform="translate(29.517318, 157.508867)"><g><path d="M 14.101562 0 L 19.820312 0 L 10.429688 -10.820312 L 18.847656 -19.496094 L 13.324219 -19.496094 L 6.953125 -12.609375 L 6.207031 -12.609375 L 6.207031 -19.496094 L 1.917969 -19.496094 L 1.917969 0 L 6.207031 0 L 6.207031 -8.902344 L 6.824219 -8.902344 Z M 14.101562 0 "/></g></g></g><g fill="#0652e9" fill-opacity="1"><g transform="translate(49.798131, 157.508867)"><g><path d="M 13.84375 0 L 18.425781 0 L 11.40625 -19.496094 L 6.597656 -19.496094 L -0.421875 0 L 4.160156 0 L 5.363281 -3.671875 L 12.640625 -3.671875 Z M 6.5 -7.246094 L 9 -14.980469 L 11.503906 -7.246094 Z M 6.5 -7.246094 "/></g></g></g><g fill="#0652e9" fill-opacity="1"><g transform="translate(68.941778, 157.508867)"><g><path d="M 18.910156 -19.496094 L 12.703125 -6.011719 L 6.5625 -19.496094 L 1.917969 -19.496094 L 1.917969 0 L 6.207031 0 L 6.207031 -11.632812 L 11.46875 0 L 13.941406 0 L 19.234375 -11.601562 L 19.234375 0 L 23.527344 0 L 23.527344 -19.496094 Z M 18.910156 -19.496094 "/></g></g></g><g fill="#0652e9" fill-opacity="1"><g transform="translate(95.52571, 157.508867)"><g><path d="M 12.085938 -8.027344 C 14.394531 -8.707031 16.019531 -10.851562 16.019531 -13.515625 C 16.019531 -16.832031 13.550781 -19.496094 10.203125 -19.496094 L 1.917969 -19.496094 L 1.917969 0 L 6.207031 0 L 6.207031 -7.539062 L 7.929688 -7.539062 L 12.738281 0 L 17.546875 0 Z M 9.554688 -11.082031 L 6.207031 -11.082031 L 6.207031 -15.695312 L 9.554688 -15.695312 C 10.917969 -15.695312 11.925781 -14.71875 11.925781 -13.386719 C 11.925781 -12.023438 10.917969 -11.082031 9.554688 -11.082031 Z M 9.554688 -11.082031 "/></g></g></g><g fill="#0652e9" fill-opacity="1"><g transform="translate(114.05204, 157.508867)"><g><path d="M 13.84375 0 L 18.425781 0 L 11.40625 -19.496094 L 6.597656 -19.496094 L -0.421875 0 L 4.160156 0 L 5.363281 -3.671875 L 12.640625 -3.671875 Z M 6.5 -7.246094 L 9 -14.980469 L 11.503906 -7.246094 Z M 6.5 -7.246094 "/></g></g></g><g fill="#0652e9" fill-opacity="1"><g transform="translate(133.195682, 157.508867)"><g><path d="M 15.921875 -19.496094 L 15.921875 -6.597656 L 6.335938 -19.496094 L 1.917969 -19.496094 L 1.917969 0 L 6.207031 0 L 6.207031 -12.933594 L 15.757812 0 L 20.179688 0 L 20.179688 -19.496094 Z M 15.921875 -19.496094 "/></g></g></g><g fill="#0652e9" fill-opacity="1"><g transform="translate(156.465594, 157.508867)"><g/></g></g><g fill="#38b6ff" fill-opacity="1"><g transform="translate(165.396223, 157.508867)"><g><path d="M 18.910156 -19.496094 L 12.703125 -6.011719 L 6.5625 -19.496094 L 1.917969 -19.496094 L 1.917969 0 L 6.207031 0 L 6.207031 -11.632812 L 11.46875 0 L 13.941406 0 L 19.234375 -11.601562 L 19.234375 0 L 23.527344 0 L 23.527344 -19.496094 Z M 18.910156 -19.496094 "/></g></g></g><g fill="#38b6ff" fill-opacity="1"><g transform="translate(191.980155, 157.508867)"><g><path d="M 13.84375 0 L 18.425781 0 L 11.40625 -19.496094 L 6.597656 -19.496094 L -0.421875 0 L 4.160156 0 L 5.363281 -3.671875 L 12.640625 -3.671875 Z M 6.5 -7.246094 L 9 -14.980469 L 11.503906 -7.246094 Z M 6.5 -7.246094 "/></g></g></g><g fill="#38b6ff" fill-opacity="1"><g transform="translate(211.123802, 157.508867)"><g><path d="M 18.910156 -19.496094 L 12.703125 -6.011719 L 6.5625 -19.496094 L 1.917969 -19.496094 L 1.917969 0 L 6.207031 0 L 6.207031 -11.632812 L 11.46875 0 L 13.941406 0 L 19.234375 -11.601562 L 19.234375 0 L 23.527344 0 L 23.527344 -19.496094 Z M 18.910156 -19.496094 "/></g></g></g><g fill="#38b6ff" fill-opacity="1"><g transform="translate(237.707734, 157.508867)"><g><path d="M 18.910156 -19.496094 L 12.703125 -6.011719 L 6.5625 -19.496094 L 1.917969 -19.496094 L 1.917969 0 L 6.207031 0 L 6.207031 -11.632812 L 11.46875 0 L 13.941406 0 L 19.234375 -11.601562 L 19.234375 0 L 23.527344 0 L 23.527344 -19.496094 Z M 18.910156 -19.496094 "/></g></g></g><g fill="#38b6ff" fill-opacity="1"><g transform="translate(264.291666, 157.508867)"><g><path d="M 13.84375 0 L 18.425781 0 L 11.40625 -19.496094 L 6.597656 -19.496094 L -0.421875 0 L 4.160156 0 L 5.363281 -3.671875 L 12.640625 -3.671875 Z M 6.5 -7.246094 L 9 -14.980469 L 11.503906 -7.246094 Z M 6.5 -7.246094 "/></g></g></g><g fill="#38b6ff" fill-opacity="1"><g transform="translate(283.435319, 157.508867)"><g><path d="M 1.917969 0 L 8.351562 0 C 13.710938 0 18.097656 -4.355469 18.097656 -9.75 C 18.097656 -15.140625 13.710938 -19.496094 8.351562 -19.496094 L 1.917969 -19.496094 Z M 6.207031 -3.800781 L 6.207031 -15.695312 L 8.320312 -15.695312 C 11.40625 -15.695312 13.808594 -13.128906 13.808594 -9.75 C 13.808594 -6.367188 11.40625 -3.800781 8.320312 -3.800781 Z M 6.207031 -3.800781 "/></g></g></g><g fill="#38b6ff" fill-opacity="1"><g transform="translate(303.878585, 157.508867)"><g><path d="M 11.210938 0.261719 C 16.765625 0.261719 21.21875 -4.222656 21.21875 -9.75 C 21.21875 -15.273438 16.765625 -19.757812 11.210938 -19.757812 C 5.6875 -19.757812 1.203125 -15.273438 1.203125 -9.75 C 1.203125 -4.222656 5.6875 0.261719 11.210938 0.261719 Z M 11.210938 -3.933594 C 7.929688 -3.933594 5.425781 -6.464844 5.425781 -9.75 C 5.425781 -13.03125 7.929688 -15.566406 11.210938 -15.566406 C 14.523438 -15.566406 17.027344 -13.03125 17.027344 -9.75 C 17.027344 -6.464844 14.523438 -3.933594 11.210938 -3.933594 Z M 11.210938 -3.933594 "/></g></g></g><g fill="#38b6ff" fill-opacity="1"><g transform="translate(327.473395, 157.508867)"><g><path d="M 13.648438 -19.496094 L 9 -5.554688 L 4.355469 -19.496094 L -0.421875 -19.496094 L 6.597656 0 L 11.40625 0 L 18.425781 -19.496094 Z M 13.648438 -19.496094 "/></g></g></g><g fill="#f3f5f9" fill-opacity="1"><g transform="translate(95.212943, 188.178914)"><g><path d="M 6.089844 -8.070312 L 6.089844 -9 L 1.171875 -9 L 1.171875 0 L 2.128906 0 L 2.128906 -4.035156 L 5.578125 -4.035156 L 5.578125 -4.964844 L 2.128906 -4.964844 L 2.128906 -8.070312 Z M 6.089844 -8.070312 "/></g></g></g><g fill="#f3f5f9" fill-opacity="1"><g transform="translate(105.593014, 188.178914)"><g><path d="M 4.738281 -4.109375 C 5.925781 -4.273438 6.824219 -5.265625 6.824219 -6.480469 C 6.824219 -7.890625 5.699219 -9 4.320312 -9 L 1.09375 -9 L 1.09375 0 L 2.054688 0 L 2.054688 -4.066406 L 3.75 -4.066406 L 6.300781 0 L 7.394531 0 Z M 2.054688 -4.980469 L 2.054688 -8.039062 L 4.261719 -8.039062 C 5.160156 -8.039062 5.863281 -7.410156 5.863281 -6.511719 C 5.863281 -5.59375 5.175781 -4.980469 4.261719 -4.980469 Z M 2.054688 -4.980469 "/></g></g></g><g fill="#f3f5f9" fill-opacity="1"><g transform="translate(117.143084, 188.178914)"><g><path d="M 5.355469 0.121094 C 7.921875 0.121094 9.976562 -1.949219 9.976562 -4.5 C 9.976562 -7.050781 7.921875 -9.121094 5.355469 -9.121094 C 2.804688 -9.121094 0.734375 -7.050781 0.734375 -4.5 C 0.734375 -1.949219 2.804688 0.121094 5.355469 0.121094 Z M 5.355469 -0.839844 C 3.328125 -0.839844 1.695312 -2.460938 1.695312 -4.5 C 1.695312 -6.539062 3.328125 -8.160156 5.355469 -8.160156 C 7.394531 -8.160156 9.015625 -6.539062 9.015625 -4.5 C 9.015625 -2.460938 7.394531 -0.839844 5.355469 -0.839844 Z M 5.355469 -0.839844 "/></g></g></g><g fill="#f3f5f9" fill-opacity="1"><g transform="translate(131.888149, 188.178914)"><g><path d="M 7.558594 -9 L 7.558594 -1.605469 L 1.996094 -9 L 1.09375 -9 L 1.09375 0 L 2.054688 0 L 2.054688 -7.394531 L 7.605469 0 L 8.503906 0 L 8.503906 -9 Z M 7.558594 -9 "/></g></g></g><g fill="#f3f5f9" fill-opacity="1"><g transform="translate(145.508214, 188.178914)"><g><path d="M 6.074219 -9 L 0.136719 -9 L 0.136719 -8.039062 L 2.625 -8.039062 L 2.625 0 L 3.585938 0 L 3.585938 -8.039062 L 6.074219 -8.039062 Z M 6.074219 -9 "/></g></g></g><g fill="#f3f5f9" fill-opacity="1"><g transform="translate(155.738288, 188.178914)"><g/></g></g><g fill="#f3f5f9" fill-opacity="1"><g transform="translate(163.373357, 188.178914)"><g><path d="M 6.089844 -8.070312 L 6.089844 -9 L 1.171875 -9 L 1.171875 0 L 6.089844 0 L 6.089844 -0.929688 L 2.128906 -0.929688 L 2.128906 -4.035156 L 5.578125 -4.035156 L 5.578125 -4.964844 L 2.128906 -4.964844 L 2.128906 -8.070312 Z M 6.089844 -8.070312 "/></g></g></g><g fill="#f3f5f9" fill-opacity="1"><g transform="translate(174.383425, 188.178914)"><g><path d="M 7.558594 -9 L 7.558594 -1.605469 L 1.996094 -9 L 1.09375 -9 L 1.09375 0 L 2.054688 0 L 2.054688 -7.394531 L 7.605469 0 L 8.503906 0 L 8.503906 -9 Z M 7.558594 -9 "/></g></g></g><g fill="#f3f5f9" fill-opacity="1"><g transform="translate(188.00349, 188.178914)"><g><path d="M 1.09375 0 L 3.554688 0 C 6.03125 0 8.054688 -2.011719 8.054688 -4.5 C 8.054688 -6.988281 6.03125 -9 3.554688 -9 L 1.09375 -9 Z M 2.039062 -0.960938 L 2.039062 -8.039062 L 3.539062 -8.039062 C 5.535156 -8.039062 7.09375 -6.523438 7.09375 -4.5 C 7.09375 -2.476562 5.535156 -0.960938 3.539062 -0.960938 Z M 2.039062 -0.960938 "/></g></g></g><g fill="#f3f5f9" fill-opacity="1"><g transform="translate(200.813548, 188.178914)"><g/></g></g><g fill="#f3f5f9" fill-opacity="1"><g transform="translate(208.448611, 188.178914)"><g><path d="M 1.09375 0 L 3.554688 0 C 6.03125 0 8.054688 -2.011719 8.054688 -4.5 C 8.054688 -6.988281 6.03125 -9 3.554688 -9 L 1.09375 -9 Z M 2.039062 -0.960938 L 2.039062 -8.039062 L 3.539062 -8.039062 C 5.535156 -8.039062 7.09375 -6.523438 7.09375 -4.5 C 7.09375 -2.476562 5.535156 -0.960938 3.539062 -0.960938 Z M 2.039062 -0.960938 "/></g></g></g><g fill="#f3f5f9" fill-opacity="1"><g transform="translate(221.258669, 188.178914)"><g><path d="M 6.089844 -8.070312 L 6.089844 -9 L 1.171875 -9 L 1.171875 0 L 6.089844 0 L 6.089844 -0.929688 L 2.128906 -0.929688 L 2.128906 -4.035156 L 5.578125 -4.035156 L 5.578125 -4.964844 L 2.128906 -4.964844 L 2.128906 -8.070312 Z M 6.089844 -8.070312 "/></g></g></g><g fill="#f3f5f9" fill-opacity="1"><g transform="translate(232.268732, 188.178914)"><g><path d="M 6.523438 -9 L 3.796875 -1.230469 L 1.066406 -9 L 0 -9 L 3.253906 0 L 4.320312 0 L 7.574219 -9 Z M 6.523438 -9 "/></g></g></g><g fill="#f3f5f9" fill-opacity="1"><g transform="translate(243.863794, 188.178914)"><g><path d="M 6.089844 -8.070312 L 6.089844 -9 L 1.171875 -9 L 1.171875 0 L 6.089844 0 L 6.089844 -0.929688 L 2.128906 -0.929688 L 2.128906 -4.035156 L 5.578125 -4.035156 L 5.578125 -4.964844 L 2.128906 -4.964844 L 2.128906 -8.070312 Z M 6.089844 -8.070312 "/></g></g></g><g fill="#f3f5f9" fill-opacity="1"><g transform="translate(254.873856, 188.178914)"><g><path d="M 2.054688 -0.960938 L 2.054688 -9 L 1.09375 -9 L 1.09375 0 L 5.398438 0 L 5.398438 -0.960938 Z M 2.054688 -0.960938 "/></g></g></g><g fill="#f3f5f9" fill-opacity="1"><g transform="translate(264.428917, 188.178914)"><g><path d="M 5.355469 0.121094 C 7.921875 0.121094 9.976562 -1.949219 9.976562 -4.5 C 9.976562 -7.050781 7.921875 -9.121094 5.355469 -9.121094 C 2.804688 -9.121094 0.734375 -7.050781 0.734375 -4.5 C 0.734375 -1.949219 2.804688 0.121094 5.355469 0.121094 Z M 5.355469 -0.839844 C 3.328125 -0.839844 1.695312 -2.460938 1.695312 -4.5 C 1.695312 -6.539062 3.328125 -8.160156 5.355469 -8.160156 C 7.394531 -8.160156 9.015625 -6.539062 9.015625 -4.5 C 9.015625 -2.460938 7.394531 -0.839844 5.355469 -0.839844 Z M 5.355469 -0.839844 "/></g></g></g><g fill="#f3f5f9" fill-opacity="1"><g transform="translate(279.173988, 188.178914)"><g><path d="M 4.320312 -9 L 1.09375 -9 L 1.09375 0 L 2.054688 0 L 2.054688 -4.003906 L 4.320312 -4.003906 C 5.714844 -4.003906 6.824219 -5.101562 6.824219 -6.496094 C 6.824219 -7.875 5.714844 -9 4.320312 -9 Z M 4.230469 -4.921875 L 2.054688 -4.921875 L 2.054688 -8.070312 L 4.230469 -8.070312 C 5.128906 -8.070312 5.863281 -7.441406 5.863281 -6.480469 C 5.863281 -5.488281 5.128906 -4.921875 4.230469 -4.921875 Z M 4.230469 -4.921875 "/></g></g></g><g fill="#f3f5f9" fill-opacity="1"><g transform="translate(290.274047, 188.178914)"><g><path d="M 6.089844 -8.070312 L 6.089844 -9 L 1.171875 -9 L 1.171875 0 L 6.089844 0 L 6.089844 -0.929688 L 2.128906 -0.929688 L 2.128906 -4.035156 L 5.578125 -4.035156 L 5.578125 -4.964844 L 2.128906 -4.964844 L 2.128906 -8.070312 Z M 6.089844 -8.070312 "/></g></g></g><g fill="#f3f5f9" fill-opacity="1"><g transform="translate(301.28411, 188.178914)"><g><path d="M 4.738281 -4.109375 C 5.925781 -4.273438 6.824219 -5.265625 6.824219 -6.480469 C 6.824219 -7.890625 5.699219 -9 4.320312 -9 L 1.09375 -9 L 1.09375 0 L 2.054688 0 L 2.054688 -4.066406 L 3.75 -4.066406 L 6.300781 0 L 7.394531 0 Z M 2.054688 -4.980469 L 2.054688 -8.039062 L 4.261719 -8.039062 C 5.160156 -8.039062 5.863281 -7.410156 5.863281 -6.511719 C 5.863281 -5.59375 5.175781 -4.980469 4.261719 -4.980469 Z M 2.054688 -4.980469 "/></g></g></g></svg>